<?xml version="1.0" standalone="no"?>
<!DOCTYPE svg PUBLIC "-//W3C//DTD SVG 20010904//EN"
 "http://www.w3.org/TR/2001/REC-SVG-20010904/DTD/svg10.dtd">
<svg version="1.0" xmlns="http://www.w3.org/2000/svg"
 width="500.000000pt" height="500.000000pt" viewBox="0 0 500.000000 500.000000"
 preserveAspectRatio="xMidYMid meet">

<g transform="translate(0.000000,500.000000) scale(0.100000,-0.100000)"
fill="#000000" stroke="none">
<path d="M340 2500 l0 -2160 2160 0 2160 0 0 2160 0 2160 -2160 0 -2160 0 0
-2160z m4100 0 l0 -1930 -1940 0 -1940 0 0 1930 0 1930 1940 0 1940 0 0 -1930z"/>
<path d="M2510 2540 l0 -650 165 0 165 0 0 166 0 165 51 -3 52 -3 86 -160 86
-160 194 -3 c166 -2 193 0 188 12 -3 8 -59 107 -125 219 l-119 205 19 23 c35
44 71 123 129 286 33 90 59 168 59 173 0 7 -61 10 -177 8 l-178 -3 -40 -123
c-23 -67 -50 -131 -61 -142 -20 -21 -136 -46 -154 -35 -6 4 -10 140 -10 341
l0 334 -165 0 -165 0 0 -650z"/>
<path d="M1492 3120 c-110 -29 -187 -74 -272 -160 -129 -129 -175 -253 -174
-465 0 -115 4 -139 28 -210 37 -108 84 -181 162 -254 119 -112 262 -164 449
-164 133 0 208 18 324 74 145 71 258 208 305 368 9 30 16 58 16 63 0 4 -81 8
-180 8 l-180 0 -19 -37 c-47 -92 -144 -147 -256 -147 -91 0 -138 17 -196 71
-69 65 -94 127 -94 238 0 105 22 165 82 227 130 134 380 99 464 -64 l19 -38
176 0 176 0 -7 38 c-28 153 -164 326 -317 403 -138 70 -349 90 -506 49z"/>
<path d="M3692 2209 c-124 -63 -123 -258 1 -318 103 -50 213 -14 258 84 36 78
13 168 -56 221 -51 39 -141 45 -203 13z"/>
</g>
</svg>
